name processed_emg_signals
nRows=45
nColumns=7
 
endheader
time	LGLTMED	LRF	LADDLONG	LBF	LTA	LGM
19.229999999999926	0.0026071355114169	0.0075960585145735	0.0044106182113203	0.0040041300012245	0.7441675966849164	0.0015538382382997
19.239999999999924	0.0025891281751441	0.0075677194232354	0.0044240910092648	0.0040051591748539	0.7355180819297441	0.0015392925326669
19.249999999999922	0.002571136266643	0.0075399795363589	0.0044381140844577	0.0040078865885275	0.7268576788329552	0.001524717465908
19.259999999999923	0.0025531924640337	0.0075128653634588	0.0044526869318456	0.0040123490249866	0.7181957579673454	0.0015101287329566
19.269999999999925	0.0025353300434703	0.0074864018339698	0.0044678081243942	0.0040185804735613	0.7095415819641006	0.0014955418410172
19.279999999999923	0.002517582807607	0.0074606122492606	0.0044834752929377	0.0040266120259058	0.700904289531427	0.0014809720824162
19.28999999999992	0.0024999850122072	0.0074355182380661	0.0044996851075995	0.0040364717772568	0.6922928797474224	0.001466434507921
19.299999999999923	0.0024825712911074	0.0074111397154953	0.0045164332608511	0.004048184733409	0.683716196668308	0.0014519439006036
19.309999999999924	0.0024653765797509	0.0073874948457626	0.0045337144522877	0.0040617727235939	0.6751829142915864	0.00143751475032
19.319999999999922	0.0024484360375013	0.0073646000087892	0.004551522375205	0.0040772543194341	0.6667015219116866	0.0014231612288741
19.32999999999992	0.0024317849689404	0.007342469770812	0.0045698497050628	0.0040946447601307	0.6582803099036878	0.0014088971659303
19.33999999999992	0.0024154587443507	0.0073211168591348	0.0045886880899215	0.0041139558840287	0.6499273559688437	0.0013947360257357
19.349999999999923	0.0023994927195785	0.0073005521411431	0.0046080281429301	0.0041351960666953	0.6416505118737956	0.0013806908847085
19.35999999999992	0.0023839221554734	0.0072807846076983	0.004627859436948	0.0041583701656335	0.6334573907134935	0.0013667744099463
19.36999999999992	0.0023687821370975	0.0072618213610142	0.0046481705013721	0.0041834794717533	0.6253553547259688	0.0013529988387059
19.37999999999992	0.0023541074928937	0.007243667607114	0.0046689488212417	0.0042105216677144	0.6173515036852828	0.0013393759588996
19.389999999999922	0.002339932714001	0.0072263266529565	0.0046901808386812	0.0042394907932515	0.6094526638972445	0.0013259170906544
19.39999999999992	0.0023262918738977	0.0072097999083144	0.0047118519567291	0.0042703772175851	0.601665377820869	0.0013126330689726
19.40999999999992	0.0023132185485492	0.0071940868924723	0.0047339465455939	0.0043031676190103	0.5939958943369973	0.001299534227536
19.41999999999992	0.0023007457372311	0.0071791852458044	0.0047564479513628	0.0043378449717473	0.586450159683965	0.0012866303836886
19.42999999999992	0.0022889057841957	0.0071650907462675	0.0047793385071778	0.0043743885401266	0.5790338090786562	0.0012739308246334
19.43999999999992	0.0022777303013447	0.0071517973308282	0.0048025995468825	0.0044127738801725	0.5717521590396764	0.0012614442948755
19.449999999999918	0.0022672500920684	0.0071392971218157	0.0048262114211309	0.0044529728486379	0.5646102004276817	0.0012491789849394
19.45999999999992	0.0022574950764111	0.0071275804581698	0.0048501535159459	0.0044949536195347	0.557612592216122	0.0012371425213872
19.46999999999992	0.0022484942177169	0.007116635931534	0.0048744042737106	0.0045386807081894	0.5507636560038006	0.0012253419581595
19.47999999999992	0.002240275450907	0.0071064504271281	0.0048989412165803	0.0045841150028438	0.54406737127878	0.0012137837692571
19.489999999999917	0.0022328656125346	0.0070970091693192	0.0049237409722977	0.0046312138038038	0.5375273714412916	0.0012024738427774
19.49999999999992	0.0022262903727573	0.0070882957717904	0.0049487793023869	0.0046799308701281	0.5311469405914168	0.0011914174763185
19.50999999999992	0.0022205741693644	0.0070802922921869	0.0049740311326932	0.0047302164738323	0.5249290110854572	0.001180619373757
19.519999999999918	0.0022157401439903	0.0070729792910993	0.0049994705862206	0.0047820174615716	0.5188761618631574	0.0011700836434044
19.529999999999916	0.0022118100806435	0.0070663358952176	0.0050250710182072	0.0048352773237532	0.5129906175463697	0.0011598137975451
19.539999999999917	0.0022088043466766	0.0070603398644758	0.0050508050533635	0.0048899362710146	0.5072742483082712	0.0011498127533507
19.54999999999992	0.0022067418363213	0.0070549676629797	0.005076644625188	0.0049459313179878	0.5017285705107704	0.0011400828351687
19.559999999999917	0.0022056399169068	0.0070501945334962	0.00510256101726	0.0050031963742535	0.4963547481062169	0.0011306257781742
19.569999999999915	0.0022055143778748	0.0070459945752614	0.0051285249063988	0.0050616623423764	0.4911535947979778	0.0011214427333756
19.579999999999917	0.0022063793826989	0.0070423408248522	0.0051545064075645	0.0051212572228918	0.4861255769528871	0.0011125342739587
19.589999999999918	0.0022082474238072	0.0070392053398514	0.0051804751203616	0.0051819062261095	0.481270817256979	0.0011039004029525
19.599999999999916	0.0022111292806041	0.007036559285017	0.0052064001769958	0.0052435318905767	0.4765890991042747	0.0010955405621972
19.609999999999914	0.0022150339806791	0.007034373020647	0.0052322502915191	0.0053060542080379	0.4720798717067456	0.0010874536425888
19.619999999999916	0.0022199687642881	0.007032616192814	0.005257993810188	0.0053693907547044	0.4677422559119636	0.0010796379955737
19.629999999999914	0.0022259390521866	0.0070312578251207	0.0052835987627427	0.005433456828635	0.4635750507133763	0.0010720914458607
19.639999999999915	0.002232948416888	0.0070302664116136	0.0053090329144001	0.0054981655930059	0.4595767404365812	0.0010648113053159
19.649999999999913	0.0022409985574144	0.0070296100104731	0.0053342638183451	0.0055634282250339	0.4557455025834889	0.0010577943880019
19.659999999999915	0.0022500892776001	0.0070292563380933	0.0053592588685003	0.0056291540702929	0.4520792163148807	0.0010510370263221
19.669999999999913	0.0022602184680017	0.0070291728631548	0.0053839853523731	0.005695250802148	0.4485754715505309	0.001044535088227
